<?xml version="1.0" encoding="utf-8"?>
<!-- Generator: Adobe Illustrator 28.0.0, SVG Export Plug-In . SVG Version: 6.00 Build 0)  -->
<svg version="1.1" id="Capa_1_copia_2" xmlns="http://www.w3.org/2000/svg" xmlns:xlink="http://www.w3.org/1999/xlink" x="0px"
	 y="0px" viewBox="0 0 359.15 347.65" style="enable-background:new 0 0 359.15 347.65;" xml:space="preserve">
<style type="text/css">
	.st0{fill:url(#SVGID_1_);}
	.st1{fill:url(#SVGID_00000085235392749245405960000005431794918003700628_);}
	.st2{fill:url(#SVGID_00000183956263880780869030000016286358103219939720_);}
	.st3{fill:#3B3B3A;}
	.st4{fill:url(#SVGID_00000000181663876830149770000006863377361360860301_);}
	.st5{fill:url(#SVGID_00000045580724447328671210000013800956814015578047_);}
	.st6{fill:url(#SVGID_00000164483076341852470220000006755935513999912836_);}
	.st7{fill:url(#SVGID_00000152972124847304990820000012978661254174627218_);}
	.st8{fill:url(#SVGID_00000058576316468130606010000010011116032294249361_);}
</style>
<g>
	<g>
		<radialGradient id="SVGID_1_" cx="193.61" cy="146.0832" r="136.9337" gradientUnits="userSpaceOnUse">
			<stop  offset="0.3292" style="stop-color:#389DCF"/>
			<stop  offset="0.4532" style="stop-color:#368EC4"/>
			<stop  offset="0.6921" style="stop-color:#3166A7"/>
			<stop  offset="1" style="stop-color:#2A2B7B"/>
		</radialGradient>
		<path class="st0" d="M239.09,173.83c0.21,4.01,3.16,6.58,6.01,9l31.72,28.46c4.48-11.63,6.97-24.25,6.97-37.46
			s-2.48-25.83-6.97-37.46l-31.72,28.46C242.25,167.24,239.3,169.81,239.09,173.83z"/>
		
			<radialGradient id="SVGID_00000089546752000261075130000003683208027380357769_" cx="193.61" cy="146.0832" r="136.9337" gradientUnits="userSpaceOnUse">
			<stop  offset="0.3292" style="stop-color:#389DCF"/>
			<stop  offset="0.4532" style="stop-color:#368EC4"/>
			<stop  offset="0.6921" style="stop-color:#3166A7"/>
			<stop  offset="1" style="stop-color:#2A2B7B"/>
		</radialGradient>
		<path style="fill:url(#SVGID_00000089546752000261075130000003683208027380357769_);" d="M225.62,187.26
			c-4.25-3.83-5.23-8.34-5.3-13.13l-0.01,0c0-0.1,0.01-0.2,0.01-0.29c0-0.1-0.01-0.2-0.01-0.29l0.01,0c0.07-4.8,1.05-9.31,5.3-13.13
			l43.23-39.4h0.54c-18.12-30.74-51.55-51.39-89.82-51.39c-41.24,0-76.88,23.96-93.77,58.71l37.25,41.51c2.42,2.84,4.99,5.8,9,6.01
			c4.01-0.21,6.58-3.16,9-6.01L184.88,121h22.86l-62.25,68.32c-3.83,4.25-8.34,5.23-13.13,5.3v0.01c-0.1,0-0.2-0.01-0.29-0.01
			c-0.1,0-0.19,0.01-0.29,0.01l0-0.01c-4.8-0.07-9.31-1.05-13.13-5.3l-39.4-43.23v-0.35c-2.5,8.94-3.86,18.35-3.86,28.09
			c0,57.55,46.66,104.21,104.21,104.21c38.27,0,71.7-20.64,89.82-51.39h-0.54L225.62,187.26z M207.73,226.65h-19.48l0.32-60.47
			l19.16-25.22V226.65z"/>
	</g>
	
		<linearGradient id="SVGID_00000127757820275126456180000011979894387190972601_" gradientUnits="userSpaceOnUse" x1="-1464.1765" y1="633.2231" x2="-1464.1765" y2="544.1117" gradientTransform="matrix(-1 0 0 -1 -1284.6003 709.6695)">
		<stop  offset="0" style="stop-color:#FFFFFF"/>
		<stop  offset="0.0828" style="stop-color:#FFFFFF;stop-opacity:0.8543"/>
		<stop  offset="0.5679" style="stop-color:#FFFFFF;stop-opacity:0"/>
	</linearGradient>
	
		<ellipse style="fill:url(#SVGID_00000127757820275126456180000011979894387190972601_);" cx="179.58" cy="121" rx="70.18" ry="44.56"/>
</g>
</svg>
