<?xml version="1.0" encoding="utf-8"?>
<!-- Generator: Adobe Illustrator 28.0.0, SVG Export Plug-In . SVG Version: 6.00 Build 0)  -->
<svg version="1.1" id="Capa_1_copia_2" xmlns="http://www.w3.org/2000/svg" xmlns:xlink="http://www.w3.org/1999/xlink" x="0px"
	 y="0px" viewBox="0 0 787.3 605.99" style="enable-background:new 0 0 787.3 605.99;" xml:space="preserve">
<style type="text/css">
	.st0{fill:url(#SVGID_1_);}
	.st1{fill:url(#SVGID_00000165194600200715465030000017966603584796892336_);}
	.st2{fill:url(#SVGID_00000172406464773272291800000015451474506647854267_);}
	.st3{fill:#3B3B3A;}
	.st4{fill:url(#SVGID_00000068658825538907084630000011570992486309150638_);}
	.st5{fill:url(#SVGID_00000183936122562893262470000018303061019431985589_);}
	.st6{fill:url(#SVGID_00000127749221268681617450000005194155852348037548_);}
	.st7{fill:url(#SVGID_00000183209149599178463530000015477384022183701933_);}
	.st8{fill:url(#SVGID_00000149353984103429565520000004630629928260208820_);}
</style>
<g>
	<g>
		<g>
			<radialGradient id="SVGID_1_" cx="220.8493" cy="280.5565" r="110.7574" gradientUnits="userSpaceOnUse">
				<stop  offset="0.3292" style="stop-color:#389DCF"/>
				<stop  offset="0.4532" style="stop-color:#368EC4"/>
				<stop  offset="0.6921" style="stop-color:#3166A7"/>
				<stop  offset="1" style="stop-color:#2A2B7B"/>
			</radialGradient>
			<path class="st0" d="M257.63,303c0.17,3.25,2.56,5.33,4.86,7.28l25.66,23.02c3.63-9.41,5.64-19.62,5.64-30.3
				s-2.01-20.9-5.64-30.3l-25.66,23.02C260.19,297.67,257.81,299.75,257.63,303z"/>
			
				<radialGradient id="SVGID_00000056425030323683825510000016821431034447018656_" cx="220.8493" cy="280.5565" r="110.7574" gradientUnits="userSpaceOnUse">
				<stop  offset="0.3292" style="stop-color:#389DCF"/>
				<stop  offset="0.4532" style="stop-color:#368EC4"/>
				<stop  offset="0.6921" style="stop-color:#3166A7"/>
				<stop  offset="1" style="stop-color:#2A2B7B"/>
			</radialGradient>
			<path style="fill:url(#SVGID_00000056425030323683825510000016821431034447018656_);" d="M246.74,313.86
				c-3.44-3.1-4.23-6.75-4.28-10.62l-0.01,0c0-0.08,0-0.16,0.01-0.24c0-0.08-0.01-0.16-0.01-0.24l0.01,0
				c0.06-3.88,0.85-7.53,4.28-10.62l34.97-31.86h0.44c-14.66-24.87-41.7-41.56-72.65-41.56c-33.36,0-62.18,19.38-75.85,47.49
				l30.13,33.58c1.96,2.3,4.03,4.69,7.28,4.86c3.25-0.17,5.33-2.56,7.28-4.86l35.45-39.5h18.49l-50.35,55.26
				c-3.1,3.44-6.75,4.23-10.62,4.28v0.01c-0.08,0-0.16-0.01-0.24-0.01c-0.08,0-0.16,0.01-0.24,0.01l0-0.01
				c-3.88-0.06-7.53-0.85-10.62-4.28l-31.86-34.97v-0.29c-2.02,7.23-3.12,14.85-3.12,22.72c0,46.55,37.74,84.29,84.29,84.29
				c30.95,0,57.99-16.7,72.65-41.56h-0.44L246.74,313.86z M232.27,345.72h-15.75l0.26-48.91l15.49-20.4V345.72z"/>
		</g>
		
			<linearGradient id="SVGID_00000090976521721494706260000007361223570461996708_" gradientUnits="userSpaceOnUse" x1="183.3082" y1="502.5088" x2="183.3082" y2="430.4319" gradientTransform="matrix(-1 0 0 -1 392.8062 726.7403)">
			<stop  offset="0" style="stop-color:#FFFFFF"/>
			<stop  offset="0.0828" style="stop-color:#FFFFFF;stop-opacity:0.8543"/>
			<stop  offset="0.5679" style="stop-color:#FFFFFF;stop-opacity:0"/>
		</linearGradient>
		
			<ellipse style="fill:url(#SVGID_00000090976521721494706260000007361223570461996708_);" cx="209.5" cy="260.27" rx="56.76" ry="36.04"/>
	</g>
	<g>
		<g>
			<path class="st3" d="M367.23,283.62c-1.53,3.75-2.83,6.11-6.5,6.11s-5.04-2.37-6.57-6.11l-15.9-39.67
				c-0.31-0.76-0.84-1.68-1.38-1.68c-0.61,0-0.99,0.76-0.99,1.53l0.15,45.32h-7.11v-48.08c0-3.9,2.6-6.04,6.8-6.04
				c4.59,0,6.19,2.6,7.64,6.11l15.97,39.59c0.38,0.99,0.69,1.83,1.38,1.83c0.61,0,0.99-0.84,1.38-1.83l15.97-39.59
				c1.38-3.52,2.98-6.11,7.57-6.11c4.2,0,6.88,2.14,6.88,6.04v48.08h-7.11l0.15-45.32c0-1.38-0.69-1.53-0.99-1.53
				c-0.54,0-1.07,0.92-1.38,1.68L367.23,283.62z"/>
			<path class="st3" d="M425.24,289.12c-4.66,0-7.49-2.22-7.49-7.57v-38.37c0-5.73,2.83-7.57,7.49-7.57h33.09v5.81h-29.96
				c-2.98,0-3.52,0.92-3.52,3.59v13.83h32.71v5.81h-32.71v14.98c0,2.67,0.54,3.67,3.52,3.67h30.27v5.81H425.24z"/>
			<path class="st3" d="M489.06,289.12c-4.66,0-7.49-2.22-7.49-7.57v-38.37c0-5.73,2.83-7.57,7.49-7.57h33.09v5.81h-29.96
				c-2.98,0-3.52,0.92-3.52,3.59v13.83h32.71v5.81h-32.71v14.98c0,2.67,0.54,3.67,3.52,3.67h30.27v5.81H489.06z"/>
			<path class="st3" d="M545.39,235.62h7.11v53.5h-7.11V235.62z M583.76,289.12l-24.69-20.56c-3.06-2.52-3.67-4.82-3.67-6.96
				c0-1.68,0.99-3.9,3.29-5.88l22.62-20.1h9.25l-25.22,22.09c-1.38,1.22-2.98,2.22-2.98,3.9c0,1.91,1.91,3.44,3.59,4.82l27.44,22.7
				H583.76z"/>
			<path class="st3" d="M627.09,240.9c1.61-3.75,3.29-5.88,7.34-5.88c3.9,0,5.88,2.22,7.41,5.88l20.25,48.23h-7.49l-6.04-14.52
				h-28.36l-5.96,14.52h-7.49L627.09,240.9z M622.35,268.79h24.08l-10.09-24.53c-0.46-1.07-0.99-2.6-1.91-2.6
				c-0.92,0-1.38,1.53-1.83,2.6L622.35,268.79z"/>
		</g>
		<g>
			<g>
				<path class="st3" d="M333.23,337.22c-2.65,0-4.26-1.26-4.26-4.3v-21.8c0-3.26,1.61-4.3,4.26-4.3h18.8v3.3h-17.02
					c-1.69,0-2,0.52-2,2.04v7.86h18.59v3.3h-18.59v8.51c0,1.52,0.3,2.08,2,2.08h17.2v3.3H333.23z"/>
				<path class="st3" d="M388.29,333.75c0,2.56-1.48,3.82-3.65,3.82c-1.65,0-2.82-0.52-4-2.39l-14.33-22.93
					c-0.3-0.52-0.56-0.74-0.87-0.74c-0.17,0-0.61,0.17-0.61,0.87v24.84h-3.95v-27.14c0-2.78,2.04-3.6,3.74-3.6
					c2.21,0,3.17,1.04,3.91,2.21L383,331.8c0.22,0.35,0.39,0.74,0.83,0.74c0.52,0,0.52-0.48,0.52-0.74v-24.97h3.95V333.75z"/>
				<path class="st3" d="M424.55,333.27c0,2.82-1.39,3.95-4,3.95h-11.03c-9.86,0-12.12-6.73-12.12-15.2s2.26-15.2,12.68-15.2h13.77
					v3.3h-12.42c-7.6,0-9.81,3.65-9.81,11.9s2.21,11.9,9.21,11.9h7.69c1.52,0,2-0.52,2-2.04v-9.08h4.04V333.27z"/>
				<path class="st3" d="M433.66,337.22v-30.4h4.04v30.4H433.66z"/>
				<path class="st3" d="M475.09,333.75c0,2.56-1.48,3.82-3.65,3.82c-1.65,0-2.82-0.52-4-2.39l-14.33-22.93
					c-0.3-0.52-0.56-0.74-0.87-0.74c-0.17,0-0.61,0.17-0.61,0.87v24.84h-3.95v-27.14c0-2.78,2.04-3.6,3.74-3.6
					c2.21,0,3.17,1.04,3.91,2.21l14.46,23.1c0.22,0.35,0.39,0.74,0.83,0.74c0.52,0,0.52-0.48,0.52-0.74v-24.97h3.95V333.75z"/>
				<path class="st3" d="M489.33,337.22c-2.65,0-4.26-1.26-4.26-4.3v-21.8c0-3.26,1.61-4.3,4.26-4.3h18.8v3.3h-17.02
					c-1.69,0-2,0.52-2,2.04v7.86h18.59v3.3h-18.59v8.51c0,1.52,0.3,2.08,2,2.08h17.2v3.3H489.33z"/>
				<path class="st3" d="M521.24,337.22c-2.65,0-4.26-1.26-4.26-4.3v-21.8c0-3.26,1.61-4.3,4.26-4.3h18.8v3.3h-17.02
					c-1.69,0-2,0.52-2,2.04v7.86h18.59v3.3h-18.59v8.51c0,1.52,0.3,2.08,2,2.08h17.2v3.3H521.24z"/>
				<path class="st3" d="M548.9,311.43c0-3.26,1.61-4.6,4.47-4.6h14.07c5.6,0,7.38,3.56,7.38,9.21c0,5.82-1.65,9.68-6.9,9.68h-4.91
					v0.22l12.46,11.29h-5.38l-11.64-10.68c-0.56-0.52-1.13-1.17-1.13-1.91v-0.69c0-0.91,0.65-1.52,1.82-1.52h7.43
					c3.69,0,4.04-2.69,4.04-6.38c0-3.78-0.61-5.91-4.69-5.91h-10.81c-1.39,0-2.17,0.43-2.17,2.08v25.01h-4.04V311.43z"/>
				<path class="st3" d="M584.38,337.22v-30.4h4.04v30.4H584.38z"/>
				<path class="st3" d="M625.81,333.75c0,2.56-1.48,3.82-3.65,3.82c-1.65,0-2.82-0.52-4-2.39l-14.33-22.93
					c-0.3-0.52-0.56-0.74-0.87-0.74c-0.17,0-0.61,0.17-0.61,0.87v24.84h-3.95v-27.14c0-2.78,2.04-3.6,3.74-3.6
					c2.21,0,3.17,1.04,3.91,2.21l14.46,23.1c0.22,0.35,0.39,0.74,0.83,0.74c0.52,0,0.52-0.48,0.52-0.74v-24.97h3.95V333.75z"/>
				<path class="st3" d="M662.06,333.27c0,2.82-1.39,3.95-4,3.95h-11.03c-9.86,0-12.12-6.73-12.12-15.2s2.26-15.2,12.68-15.2h13.77
					v3.3h-12.42c-7.6,0-9.81,3.65-9.81,11.9s2.21,11.9,9.21,11.9h7.69c1.52,0,2-0.52,2-2.04v-9.08h4.04V333.27z"/>
			</g>
		</g>
		
			<radialGradient id="SVGID_00000008848850573261943500000017821109499179315391_" cx="498.2513" cy="364.5985" r="118.3735" gradientTransform="matrix(0.9998 0 0 1 -2.6308 0)" gradientUnits="userSpaceOnUse">
			<stop  offset="0" style="stop-color:#EBEAEB"/>
			<stop  offset="0.4343" style="stop-color:#EFEEEF;stop-opacity:0.5657"/>
			<stop  offset="0.9057" style="stop-color:#FCFBFC;stop-opacity:0.0943"/>
			<stop  offset="1" style="stop-color:#FFFFFF;stop-opacity:0"/>
		</radialGradient>
		
			<rect x="328.98" y="347.97" style="fill:url(#SVGID_00000008848850573261943500000017821109499179315391_);" width="333.09" height="33.27"/>
		<g>
			<g>
				<path class="st3" d="M335.32,369.68h8.8c1.43,0,1.5-1.18,1.5-1.72c0-0.61-0.16-1.36-1.54-1.79l-6.26-1.97
					c-2.09-0.66-2.7-2-2.7-4.17c0-2.27,1.11-3.83,3.63-3.83h9.14v2.38h-8.34c-0.75,0-1.34,0.45-1.34,1.59c0,0.7,0.11,1.38,1.38,1.79
					l5.8,1.84c2.31,0.73,3.31,1.7,3.31,4.2c0,2.33-0.95,4.08-3.4,4.08h-9.98V369.68z"/>
				<path class="st3" d="M393.4,372.06h-10.41c-1.36,0-2.31-0.57-2.31-2.38v-11.11c0-1.81,0.95-2.38,2.31-2.38h10.32v2.38h-8.5
					c-0.91,0-1.13,0.23-1.13,1.13v3.06h9.41v2.38h-9.41v3.4c0,0.91,0.23,1.13,1.13,1.13h8.59V372.06z"/>
				<path class="st3" d="M425.37,372.06v-13.49c0-1.81,0.95-2.38,2.31-2.38h8c2.95,0,3.97,1.84,3.97,5.01
					c0,3.27-1.02,5.31-3.67,5.31h-1.59v0.11l5.58,5.44h-3.85l-5.12-5.15c-0.34-0.36-0.75-0.88-0.75-1.34v-0.36
					c0-0.63,0.45-1.09,1.34-1.09h3.08c1.66,0,1.9-1.11,1.9-2.92c0-1.81-0.34-2.63-2.24-2.63h-4.83c-0.91,0-1.13,0.23-1.13,1.13
					v12.36H425.37z"/>
				<path class="st3" d="M478.2,369c0.07,0.11,0.14,0.34,0.34,0.34s0.27-0.23,0.34-0.34l4.74-12.81h3.24l-5.76,14.33
					c-0.34,0.86-0.97,1.72-2.56,1.72c-1.59,0-2.22-0.86-2.56-1.72l-5.76-14.33h3.24L478.2,369z"/>
				<path class="st3" d="M517.8,372.06v-15.87h2.99v15.87H517.8z"/>
				<path class="st3" d="M559.73,372.06c-5.44,0-6.73-3.4-6.73-7.94c0-4.53,1.29-7.94,6.73-7.94h6.37v2.38h-4.97
					c-3.85,0-5.06,1.25-5.06,5.55c0,4.31,1.2,5.56,5.06,5.56h5.22v2.38H559.73z"/>
				<path class="st3" d="M611.04,372.06h-10.41c-1.36,0-2.31-0.57-2.31-2.38v-11.11c0-1.81,0.95-2.38,2.31-2.38h10.32v2.38h-8.5
					c-0.91,0-1.13,0.23-1.13,1.13v3.06h9.41v2.38h-9.41v3.4c0,0.91,0.23,1.13,1.13,1.13h8.59V372.06z"/>
				<path class="st3" d="M642.54,369.68h8.8c1.43,0,1.5-1.18,1.5-1.72c0-0.61-0.16-1.36-1.54-1.79l-6.26-1.97
					c-2.09-0.66-2.7-2-2.7-4.17c0-2.27,1.11-3.83,3.63-3.83h9.14v2.38h-8.34c-0.75,0-1.34,0.45-1.34,1.59c0,0.7,0.11,1.38,1.38,1.79
					l5.8,1.84c2.31,0.73,3.31,1.7,3.31,4.2c0,2.33-0.95,4.08-3.4,4.08h-9.98V369.68z"/>
			</g>
		</g>
	</g>
</g>
</svg>
